<svg width="192" height="69" viewBox="0 0 192 69" fill="none" xmlns="http://www.w3.org/2000/svg">
<path d="M35.3058 17.5645V35.673C35.3058 43.2732 31.76 48.5274 24.2167 48.5274C21.5194 48.5277 18.9172 47.5399 16.9106 45.7541C14.9041 43.9682 13.6349 41.5104 13.3473 38.8534L18.7362 38.3334C19.3099 40.897 21.2385 42.723 24.0397 42.723C27.0912 42.723 28.9953 40.4193 28.9953 37.4627V17.5645H35.3058Z" fill="#271A38"/>
<path d="M63.0499 24.5962V48.1766H56.9469V46.6167C55.0261 47.8872 52.7627 48.5532 50.4533 48.5273C43.4959 48.5273 40.2797 45.3107 40.2797 37.6682V24.5962H46.3827V37.6682C46.3827 41.296 48.183 43.1099 51.558 43.1099C53.525 43.1529 55.4414 42.4893 56.953 41.2416V24.5962H63.0499Z" fill="#271A38"/>
<path d="M90.9346 35.02V48.1827H84.8316V35.02C84.8316 31.3923 83.0312 29.5784 79.6562 29.5784C77.7305 29.5332 75.8562 30.1966 74.3955 31.4406V48.1827H68.2925V24.6023H74.3955V26.0836C76.2683 24.8191 78.4886 24.1563 80.7548 24.1851C87.7244 24.1851 90.9224 27.3957 90.9224 35.0684" fill="#271A38"/>
<path d="M102.134 24.5962H96.0427V48.1766H102.134V24.5962Z" fill="#271A38"/>
<path d="M141.84 34.2399C142.407 31.3317 144.69 28.9857 147.888 28.9857C151.964 28.9857 153.411 31.5494 153.631 34.2399H141.84ZM159.465 36.7612C159.465 29.4211 155.193 24.1669 147.869 24.1669C140.68 24.1669 135.663 29.6085 135.663 36.3682C135.663 43.128 140.662 48.5273 147.869 48.5273C152.52 48.5273 156.413 46.6167 158.611 43.6903L154.711 40.4736C153.984 41.3954 153.051 42.1377 151.986 42.6423C150.921 43.1469 149.752 43.4001 148.571 43.3819C144.909 43.3819 142.438 41.2113 141.779 38.1277H159.398C159.398 37.7407 159.447 37.2631 159.447 36.7854" fill="#271A38"/>
<path d="M169.663 27.8974C170.519 26.7256 171.648 25.776 172.954 25.1296C174.26 24.4832 175.704 24.1591 177.164 24.185C177.673 24.1918 178.179 24.2817 178.659 24.4511V30.981C177.69 30.7842 176.706 30.669 175.717 30.6364C171.335 30.6364 169.669 33.72 169.669 36.8036V48.1827H163.56V24.6022H169.663V27.8974Z" fill="#271A38"/>
<path d="M119.49 43.0977C117.368 43.1525 115.298 42.4436 113.662 41.1025V31.634C115.304 30.3037 117.369 29.5925 119.49 29.6266C123.567 29.6266 126.637 32.5349 126.637 36.3985C126.637 40.3951 123.586 43.128 119.49 43.128V43.0977ZM120.583 24.185C118.157 24.1896 115.773 24.8144 113.662 25.9989V24.6082H107.559V55.7828H113.662V46.7497C115.774 47.9277 118.159 48.5404 120.583 48.5273C127.205 48.5273 132.642 43.6177 132.642 36.3682C132.642 28.9857 127.205 24.1669 120.583 24.1669" fill="#271A38"/>
<path d="M95.7559 16.5244C95.7553 15.9801 95.8903 15.444 96.149 14.9638C96.4077 14.4836 96.782 14.074 97.2388 13.7715C97.6955 13.469 98.2205 13.2828 98.7673 13.2295C99.3141 13.1762 99.8657 13.2575 100.373 13.466C100.881 13.6746 101.328 14.004 101.677 14.425C102.025 14.8461 102.263 15.3458 102.369 15.8798C102.476 16.4138 102.448 16.9656 102.287 17.4862C102.127 18.0068 101.839 18.4802 101.45 18.8643C100.983 19.3253 100.388 19.6389 99.7413 19.7655C99.0945 19.8921 98.4242 19.8262 97.8152 19.5759C97.2061 19.3256 96.6855 18.9022 96.319 18.3591C95.9525 17.8161 95.7566 17.1777 95.7559 16.5244Z" fill="#745B99"/>
</svg>
